<?xml version="1.0" ?><svg viewBox="0 0 64 64" xmlns="http://www.w3.org/2000/svg"><defs><style>.cls-1{fill:#ccc;}.cls-2{fill:#e6e6e6;}.cls-3{fill:#75acb7;}.cls-4{fill:#9ce5f4;}.cls-5{fill:#a4653d;}.cls-6{fill:#bb8b6d;}.cls-7{fill:#999;}.cls-8{fill:#b3b3b3;}.cls-9{fill:none;stroke:#000;stroke-linejoin:round;stroke-width:2px;}</style></defs><title/><g data-name="Layer 24" id="Layer_24"><rect class="cls-1" height="38" width="56" x="4" y="24"/><rect class="cls-2" height="38" width="53" x="4" y="24"/><rect class="cls-3" height="10" width="16" x="8" y="28"/><rect class="cls-4" height="10" width="13" x="8" y="28"/><rect class="cls-3" height="10" width="16" x="24" y="28"/><rect class="cls-4" height="10" width="13" x="24" y="28"/><rect class="cls-3" height="10" width="16" x="40" y="28"/><rect class="cls-4" height="10" width="13" x="40" y="28"/><rect class="cls-5" height="20" width="12" x="20" y="42"/><rect class="cls-6" height="20" width="9" x="20" y="42"/><rect class="cls-5" height="20" width="12" x="32" y="42"/><rect class="cls-6" height="20" width="9" x="32" y="42"/><rect class="cls-7" height="14" width="60" x="2" y="10"/><rect class="cls-8" height="14" width="57" x="2" y="10"/><rect class="cls-5" height="16" width="34" x="15" y="2"/><rect class="cls-6" height="16" width="31" x="15" y="2"/><polyline class="cls-9" points="49 10 62 10 62 24 2 24 2 10 15 10"/><rect class="cls-9" height="38" width="56" x="4" y="24"/><rect class="cls-9" height="16" width="34" x="15" y="2"/><polyline class="cls-9" points="26 6 19 6 19 14 25 14 25 10 22 10"/><path class="cls-9" d="M29,5V7a3,3,0,0,0,3,3h0a3,3,0,0,0,3-3V5"/><line class="cls-9" x1="32" x2="32" y1="10" y2="15"/><polyline class="cls-9" points="39 15 39 6 42 12 45 6 45 15"/><polyline class="cls-9" points="20 62 20 42 44 42 44 62"/><line class="cls-9" x1="32" x2="32" y1="42" y2="62"/><rect class="cls-9" height="10" width="48" x="8" y="28"/><line class="cls-9" x1="24" x2="24" y1="28" y2="38"/><line class="cls-9" x1="40" x2="40" y1="28" y2="38"/><line class="cls-9" x1="11" x2="15" y1="35" y2="31"/><line class="cls-9" x1="17" x2="21" y1="35" y2="31"/><line class="cls-9" x1="27" x2="31" y1="35" y2="31"/><line class="cls-9" x1="33" x2="37" y1="35" y2="31"/><line class="cls-9" x1="43" x2="47" y1="35" y2="31"/><line class="cls-9" x1="49" x2="53" y1="35" y2="31"/><line class="cls-9" x1="28" x2="28" y1="49" y2="53"/><line class="cls-9" x1="36" x2="36" y1="49" y2="53"/></g></svg>